<?xml version="1.0" encoding="utf-8"?>
<svg version="1.1" xmlns:xlink="http://www.w3.org/1999/xlink" width="216px" height="36px" xmlns="http://www.w3.org/2000/svg">
  <defs>
    <mask fill="white" id="clip100">
      <path d="M 0 20.8  L 0 5.2  C 0 2.2879999999999883  2.923870967741944 0  6.64516129032258 0  L 63.29243786356724 0  L 69.82866208355568 0  L 80.72236911687139 0  L 133.01216287678872 0  L 199.35483870967744 0  C 203.07612903225808 0  206 2.2879999999999883  206 5.2  L 206 20.8  C 206 23.712000000000014  203.07612903225808 26  199.35483870967744 26  L 133.01216287678872 26  L 69.82866208355568 26  L 63.29243786356724 26  L 6.64516129032258 26  C 2.923870967741944 26  0 23.712000000000014  0 20.8  Z " fill-rule="evenodd" />
    </mask>
    <filter x="14px" y="450px" width="216px" height="36px" filterUnits="userSpaceOnUse" id="filter101">
      <feOffset dx="5" dy="5" in="SourceAlpha" result="shadowOffsetInner" />
      <feGaussianBlur stdDeviation="2.5" in="shadowOffsetInner" result="shadowGaussian" />
      <feComposite in2="shadowGaussian" operator="atop" in="SourceAlpha" result="shadowComposite" />
      <feColorMatrix type="matrix" values="0 0 0 0 0  0 0 0 0 0  0 0 0 0 0  0 0 0 0.34901960784313724 0  " in="shadowComposite" />
    </filter>
    <g id="widget102">
      <path d="M 0 20.8  L 0 5.2  C 0 2.2879999999999883  2.923870967741944 0  6.64516129032258 0  L 63.29243786356724 0  L 69.82866208355568 0  L 80.72236911687139 0  L 133.01216287678872 0  L 199.35483870967744 0  C 203.07612903225808 0  206 2.2879999999999883  206 5.2  L 206 20.8  C 206 23.712000000000014  203.07612903225808 26  199.35483870967744 26  L 133.01216287678872 26  L 69.82866208355568 26  L 63.29243786356724 26  L 6.64516129032258 26  C 2.923870967741944 26  0 23.712000000000014  0 20.8  Z " fill-rule="nonzero" fill="#333333" stroke="none" fill-opacity="0.9764705882352941" transform="matrix(1 0 0 1 14 450 )" />
      <path d="M 0 20.8  L 0 5.2  C 0 2.2879999999999883  2.923870967741944 0  6.64516129032258 0  L 63.29243786356724 0  L 69.82866208355568 0  L 80.72236911687139 0  L 133.01216287678872 0  L 199.35483870967744 0  C 203.07612903225808 0  206 2.2879999999999883  206 5.2  L 206 20.8  C 206 23.712000000000014  203.07612903225808 26  199.35483870967744 26  L 133.01216287678872 26  L 69.82866208355568 26  L 63.29243786356724 26  L 6.64516129032258 26  C 2.923870967741944 26  0 23.712000000000014  0 20.8  Z " stroke-width="2" stroke="#797979" fill="none" transform="matrix(1 0 0 1 14 450 )" mask="url(#clip100)" />
    </g>
  </defs>
  <g transform="matrix(1 0 0 1 -14 -450 )">
    <use xlink:href="#widget102" filter="url(#filter101)" />
    <use xlink:href="#widget102" />
  </g>
</svg>