<?xml version="1.0" encoding="utf-8"?>
<svg version="1.1" xmlns:xlink="http://www.w3.org/1999/xlink" width="37px" height="36px" xmlns="http://www.w3.org/2000/svg">
  <defs>
    <mask fill="white" id="clip59">
      <path d="M 0 22  L 0 16.148148148149403  L 0 9.23456790123305  L 0 4  C 0 1.759999999999991  1.759999999999991 0  4 0  L 7.814814814816145 0  L 23 0  C 25.24000000000001 0  27 1.759999999999991  27 4  L 27 14.172839506171385  L 27 16.148148148149403  L 27 22  C 27 24.24000000000001  25.24000000000001 26  23 26  L 15.716049382719119 26  L 7.814814814816145 26  L 4 26  C 1.759999999999991 26  0 24.24000000000001  0 22  Z " fill-rule="evenodd" />
    </mask>
    <filter x="587px" y="785px" width="37px" height="36px" filterUnits="userSpaceOnUse" id="filter60">
      <feOffset dx="5" dy="5" in="SourceAlpha" result="shadowOffsetInner" />
      <feGaussianBlur stdDeviation="2.5" in="shadowOffsetInner" result="shadowGaussian" />
      <feComposite in2="shadowGaussian" operator="atop" in="SourceAlpha" result="shadowComposite" />
      <feColorMatrix type="matrix" values="0 0 0 0 0  0 0 0 0 0  0 0 0 0 0  0 0 0 0.34901960784313724 0  " in="shadowComposite" />
    </filter>
    <g id="widget61">
      <path d="M 0 22  L 0 16.148148148149403  L 0 9.23456790123305  L 0 4  C 0 1.759999999999991  1.759999999999991 0  4 0  L 7.814814814816145 0  L 23 0  C 25.24000000000001 0  27 1.759999999999991  27 4  L 27 14.172839506171385  L 27 16.148148148149403  L 27 22  C 27 24.24000000000001  25.24000000000001 26  23 26  L 15.716049382719119 26  L 7.814814814816145 26  L 4 26  C 1.759999999999991 26  0 24.24000000000001  0 22  Z " fill-rule="nonzero" fill="#ffffff" stroke="none" transform="matrix(1 0 0 1 587 785 )" />
      <path d="M 0 22  L 0 16.148148148149403  L 0 9.23456790123305  L 0 4  C 0 1.759999999999991  1.759999999999991 0  4 0  L 7.814814814816145 0  L 23 0  C 25.24000000000001 0  27 1.759999999999991  27 4  L 27 14.172839506171385  L 27 16.148148148149403  L 27 22  C 27 24.24000000000001  25.24000000000001 26  23 26  L 15.716049382719119 26  L 7.814814814816145 26  L 4 26  C 1.759999999999991 26  0 24.24000000000001  0 22  Z " stroke-width="2" stroke="#dedede" fill="none" transform="matrix(1 0 0 1 587 785 )" mask="url(#clip59)" />
    </g>
  </defs>
  <g transform="matrix(1 0 0 1 -587 -785 )">
    <use xlink:href="#widget61" filter="url(#filter60)" />
    <use xlink:href="#widget61" />
  </g>
</svg>