<?xml version="1.0" encoding="utf-8"?>
<svg version="1.1" xmlns:xlink="http://www.w3.org/1999/xlink" width="54px" height="40px" xmlns="http://www.w3.org/2000/svg">
  <defs>
    <filter x="988px" y="796px" width="54px" height="40px" filterUnits="userSpaceOnUse" id="filter88">
      <feOffset dx="0" dy="0" in="SourceAlpha" result="shadowOffsetInner" />
      <feGaussianBlur stdDeviation="5" in="shadowOffsetInner" result="shadowGaussian" />
      <feComposite in2="shadowGaussian" operator="atop" in="SourceAlpha" result="shadowComposite" />
      <feColorMatrix type="matrix" values="0 0 0 0 0  0 0 0 0 0  0 0 0 0 0  0 0 0 0.3137254901960784 0  " in="shadowComposite" />
    </filter>
    <g id="widget89">
      <path d="M 33.369140625 0.6597222222222232  C 33.78971354166667 1.0995370370370328  34 1.6203703703703654  34 2.222222222222223  C 34 2.824074074074072  33.78971354166667 3.3449074074074048  33.369140625 3.784722222222223  L 18.494140625 19.34027777777778  C 18.073567708333336 19.780092592592588  17.575520833333336 20  17 20  C 16.424479166666668 20  15.92643229166667 19.780092592592588  15.505859375 19.34027777777778  L 0.630859375 3.784722222222223  C 0.21028645833333331 3.3449074074074048  0 2.824074074074072  0 2.222222222222223  C 0 1.6203703703703654  0.21028645833333331 1.0995370370370328  0.630859375 0.6597222222222232  C 1.0514322916666667 0.21990740740740478  1.5494791666666667 0  2.125 0  L 31.875 0  C 32.450520833333336 0  32.948567708333336 0.21990740740740478  33.369140625 0.6597222222222232  Z " fill-rule="nonzero" fill="#000000" stroke="none" transform="matrix(1 0 0 1 998 806 )" />
    </g>
  </defs>
  <g transform="matrix(1 0 0 1 -988 -796 )">
    <use xlink:href="#widget89" filter="url(#filter88)" />
    <use xlink:href="#widget89" />
  </g>
</svg>